<svg width="32" height="32" viewBox="0 0 32 32" fill="none" xmlns="http://www.w3.org/2000/svg">
<g clip-path="url(#clip0_28_454)">
<path d="M15.9917 11.0776C13.2764 11.0776 11.0609 13.2765 11.0609 16.0084C11.0609 16.6914 11.1942 17.341 11.444 17.9241C11.6939 18.5071 12.0604 19.0402 12.4935 19.4899C12.9433 19.9397 13.4763 20.2895 14.0594 20.5394C14.6424 20.7892 15.292 20.9225 15.975 20.9225C16.658 20.9225 17.3077 20.7892 17.8907 20.5394C18.4737 20.2895 19.0068 19.923 19.4565 19.4899C19.9063 19.0402 20.2561 18.5071 20.506 17.9241C20.7559 17.341 20.8891 16.6914 20.8891 16.0084C20.8891 13.2931 18.6903 11.0776 15.9584 11.0776H15.9917Z" fill="#E7531D"/>
<path d="M23.3878 0H8.61218C3.86465 0 0 3.86465 0 8.61218V23.3878C0 28.1353 3.86465 32 8.61218 32H23.3878C28.1353 32 32 28.1353 32 23.3878V8.61218C32 3.86465 28.1353 0 23.3878 0ZM23.3878 15.9917C23.3878 17.5242 22.9214 18.9401 22.1218 20.1229C20.7892 22.0885 18.5403 23.3712 16.0083 23.3878C11.9271 23.3878 8.62884 20.0895 8.62884 16.0083C8.62884 14.9922 8.82874 14.0094 9.21187 13.1265C9.77824 11.7939 10.7111 10.6778 11.8938 9.87819C13.0765 9.07861 14.4925 8.61218 16.025 8.61218C17.0411 8.61218 18.0239 8.81208 18.9068 9.19521C20.2395 9.76158 21.3555 10.6944 22.1551 11.8771C22.9547 13.0599 23.4211 14.4758 23.4211 16.0083L23.3878 15.9917ZM26.5362 8.07913C26.203 8.41229 25.7366 8.61218 25.2369 8.61218C24.2207 8.61218 23.3878 7.77928 23.3878 6.76314C23.3878 6.51327 23.4378 6.2634 23.5377 6.04685C23.721 5.59709 24.0708 5.24727 24.5206 5.06403C24.7371 4.96408 24.987 4.91411 25.2369 4.91411C26.253 4.91411 27.0859 5.74701 27.0859 6.76314C27.0859 7.27954 26.886 7.72931 26.5528 8.06247L26.5362 8.07913Z" fill="#E7531D"/>
</g>
<defs>
<clipPath id="clip0_28_454">
<rect width="32" height="32" fill="white"/>
</clipPath>
</defs>
</svg>
