<svg width="100" height="100" viewBox="0 0 100 100" fill="none" xmlns="http://www.w3.org/2000/svg">
<g clip-path="url(#clip0_1_30)">
<path d="M55.174 1.24647C60.3716 -1.4111 66.7215 0.282221 69.8965 5.19755C71.8721 8.25494 75.2117 10.1834 78.857 10.3716C84.6896 10.6538 89.3462 15.3104 89.6284 21.143C89.8166 24.7883 91.7451 28.1279 94.8024 30.1035C99.6943 33.2785 101.411 39.6284 98.7535 44.826C97.0837 48.0715 97.0837 51.9285 98.7535 55.174C101.411 60.3716 99.7178 66.7215 94.8024 69.8965C91.7451 71.8721 89.8166 75.2117 89.6284 78.857C89.3462 84.6896 84.6896 89.3462 78.857 89.6284C75.2117 89.8166 71.8721 91.7451 69.8965 94.8024C66.7215 99.6943 60.3716 101.411 55.174 98.7535C51.9285 97.0837 48.0715 97.0837 44.826 98.7535C39.6284 101.411 33.2785 99.7178 30.1035 94.8024C28.1279 91.7451 24.7883 89.8166 21.143 89.6284C15.3104 89.3462 10.6538 84.6896 10.3716 78.857C10.1834 75.2117 8.25494 71.8721 5.19755 69.8965C0.305739 66.7215 -1.4111 60.3716 1.24647 55.174C2.91627 51.9285 2.91627 48.0715 1.24647 44.826C-1.4111 39.6284 0.282221 33.2785 5.19755 30.1035C8.25494 28.1279 10.1834 24.7883 10.3716 21.143C10.6538 15.3104 15.3104 10.6538 21.143 10.3716C24.7883 10.1834 28.1279 8.25494 30.1035 5.19755C33.2785 0.305739 39.6284 -1.4111 44.826 1.24647C48.0715 2.91627 51.9285 2.91627 55.174 1.24647Z" fill="#E7531D"/>
<path d="M26.3542 66.3292C26.3542 66.3292 26.1984 66.3811 26.1465 66.3551H26.0686V66.3292C25.9648 66.3292 25.8869 66.3292 25.8609 66.2772L25.783 66.2253L25.6792 66.1474C25.6792 66.1474 25.5494 66.0176 25.5494 65.9917V65.9398L25.4975 65.7321C25.4975 65.6802 25.4975 65.6023 25.4975 65.5244V65.2908L25.4715 64.9792C25.4715 64.9792 25.4715 64.8494 25.4975 64.7715V64.6937V64.46V64.3042V64.1225C25.4975 64.0446 25.4975 63.9668 25.5234 63.9408V63.8889V63.5774C25.4975 63.4995 25.4715 63.4476 25.4715 63.3956V63.3437C25.4715 63.3437 25.4715 63.2658 25.4715 63.2399V63.162V63.0581C25.4715 63.0322 25.4715 62.9803 25.4715 62.8764V62.4611C25.4715 62.4611 25.4715 62.3312 25.4975 62.2793V62.2014C25.4975 62.2014 25.4975 62.0457 25.4975 62.0197V61.9418L25.5234 61.812V61.6303C25.5234 61.6303 25.4456 61.4746 25.4456 61.3967V61.2409L25.4196 61.0592H25.5754C25.5754 61.0592 25.5494 61.0073 25.4975 60.9813C25.4456 60.9294 25.4196 60.9034 25.4456 60.9034V60.8515V60.6957V60.6438C25.4456 60.6438 25.3417 60.4621 25.3417 60.4102V60.3323C25.3417 60.3323 25.3417 60.1506 25.3417 60.1246V60.0467L25.3677 59.9948C25.3677 59.9429 25.3677 59.865 25.3677 59.7871V59.7092C25.3677 59.7092 25.3677 59.6054 25.3677 59.5535V59.4756L25.3936 59.2679V59.1381V59.0083H25.5754C25.5754 58.9823 25.5234 58.9304 25.4715 58.8785C25.4196 58.8266 25.3936 58.8006 25.3936 58.7747V58.6968C25.3936 58.6968 25.3936 58.567 25.3936 58.4891V58.4112V58.2295V57.9699L25.3417 57.892C25.3417 57.7882 25.3158 57.7362 25.3158 57.7103V57.3468V57.1391C25.3158 57.0613 25.3158 57.0093 25.3417 56.9574V56.8795L25.3677 56.7238C25.3677 56.6199 25.3677 56.542 25.4196 56.5161L25.4715 56.4382C25.4715 56.4382 25.6273 56.3344 25.6792 56.3344H25.9907L26.0167 56.2824H26.1984L26.3023 56.2565C26.3801 56.2565 26.4321 56.2565 26.484 56.2824H26.5619H26.6917H26.7436C26.7436 56.2824 26.8734 56.2824 26.9513 56.2824H27.0551C27.133 56.2565 27.1849 56.2305 27.2368 56.2305H27.3666L27.4445 56.2824H27.6003C27.6003 56.2824 27.756 56.2565 27.808 56.2824H27.8859L27.9378 56.3084C28.0157 56.3084 28.0935 56.3084 28.1455 56.3084H28.2493H28.3791H28.457C28.457 56.3084 28.5349 56.3084 28.6127 56.3344H28.7166C28.7166 56.3344 28.7425 56.4382 28.7685 56.4382C28.7685 56.4382 28.8204 56.4382 28.8464 56.3863C28.8724 56.3344 28.9243 56.3344 28.9243 56.3344H29.0022L29.106 56.3863H29.2618L29.3137 56.3344C29.3916 56.3344 29.4694 56.3344 29.5214 56.3344H29.5992V56.3603L29.755 56.3084H29.9108L30.0146 56.3863L30.1704 56.3344C30.1704 56.3344 30.3261 56.3084 30.3781 56.3344H30.4559L30.4819 56.3603C30.5857 56.3603 30.6636 56.3603 30.7155 56.4122L30.8194 56.4642L30.9752 56.5161C30.9752 56.5161 31.079 56.568 31.1828 56.6199L31.2607 56.6719L31.5203 56.8017L31.6501 56.8536L31.7799 56.9055H31.8059C31.8059 56.9055 31.9097 57.0093 31.9357 57.0353L32.0136 57.1132C32.0136 57.1132 32.1434 57.217 32.1693 57.243L32.2213 57.2949L32.3251 57.4766L32.403 57.6064V57.6843L32.4809 57.9958C32.5328 58.0737 32.5587 58.1256 32.5587 58.1776V58.2554C32.5587 58.2554 32.6107 58.3852 32.6107 58.4372V58.515V58.7487C32.6366 58.8525 32.6366 58.9045 32.6107 58.9564L32.5587 59.0343V59.0862C32.5587 59.0862 32.5847 59.2419 32.5587 59.2939V59.3717H32.5328V59.4496C32.5328 59.4496 32.5328 59.5275 32.5068 59.6054L32.4549 59.6833C32.4549 59.6833 32.4549 59.7352 32.4549 59.7612C32.4549 59.7871 32.4549 59.839 32.403 59.9169L32.3251 60.0986L32.2472 60.2284C32.2472 60.2284 32.1953 60.3323 32.1174 60.3842L32.0655 60.4361L31.9357 60.6178C31.8838 60.6698 31.8578 60.6957 31.8319 60.7217H31.7799L31.6242 60.8775C31.5463 60.9553 31.4944 61.0073 31.4165 61.0332L31.2607 61.0851L31.1309 61.1371L31.2348 61.2409L31.4684 61.3707H31.4944C31.4944 61.3707 31.6501 61.3707 31.6761 61.4226L31.728 61.4745H31.754C31.754 61.4745 31.9357 61.5005 32.0136 61.5784L32.1434 61.6822C32.1434 61.6822 32.2732 61.7082 32.3251 61.7601L32.4289 61.838C32.4289 61.838 32.5587 61.9418 32.5847 61.9938C32.6366 62.0457 32.6626 62.0976 32.6626 62.1236V62.1755L32.7145 62.2014C32.7924 62.2534 32.8443 62.3312 32.8443 62.3832V62.487L32.9482 62.6947L33.0001 62.8505L33.078 63.0322C33.078 63.0322 33.1299 63.162 33.1299 63.2139V63.2918V63.3956V63.6033V63.6552C33.1299 63.6812 33.1299 63.7331 33.1299 63.785C33.1299 63.837 33.1299 63.8889 33.1299 63.9148V64.0966C33.1299 64.0966 33.1039 64.2004 33.078 64.2783V64.3562V64.3821C33.078 64.3821 33.078 64.4341 33.078 64.46C33.078 64.486 33.078 64.5379 33.026 64.5898L32.9741 64.6677V64.7715V64.7975C32.9741 64.8494 32.9482 64.9273 32.8962 65.0052C32.8962 65.0311 32.8962 65.0571 32.8443 65.0831C32.8443 65.0831 32.7924 65.109 32.7924 65.135L32.7405 65.1869L32.6886 65.3167C32.6886 65.3167 32.6626 65.3686 32.6366 65.3946C32.6366 65.4206 32.6107 65.4465 32.5847 65.4725L32.5328 65.5244V65.5763C32.5328 65.5763 32.403 65.7061 32.3251 65.758H32.2732C32.2732 65.758 32.1434 65.8619 32.0915 65.9138H32.0136C32.0136 65.9138 31.9617 65.9657 31.9357 65.9917C31.9097 66.0176 31.8838 66.0436 31.8319 66.0696L31.728 66.1215C31.728 66.1215 31.6242 66.2253 31.5722 66.2772C31.4944 66.3032 31.4424 66.3292 31.4165 66.3032L31.1828 66.0955L31.3646 66.3032C31.3646 66.3032 31.3646 66.3811 31.2867 66.3811C31.2348 66.3811 31.2088 66.3811 31.1569 66.3811H31.079L30.8713 66.433C30.8713 66.433 30.7156 66.4849 30.6896 66.4849H30.6377C30.6377 66.4849 30.4559 66.4849 30.404 66.4849H30.1963H30.0665H29.8848C29.8848 66.4849 29.755 66.5109 29.7031 66.5109H29.5992H29.3916C29.3396 66.5369 29.2877 66.5628 29.2358 66.5369L29.1579 66.4849L28.9502 66.5369C28.9502 66.5369 28.8724 66.5369 28.8204 66.5369C28.7685 66.5369 28.7426 66.5369 28.7426 66.5369H28.5349C28.4829 66.5369 28.4051 66.5628 28.3012 66.5628H28.0416H28.0157C27.9378 66.6147 27.8599 66.6147 27.756 66.6147H27.6262L27.4705 66.5628H27.2888C27.2888 66.5628 27.107 66.6147 27.0811 66.6147C27.0292 66.6147 26.9772 66.6147 26.9253 66.5888H26.8474L26.7436 66.5369H26.3282H26.3023L26.3542 66.3292ZM27.0551 57.918L27.0032 58.0737L26.9253 58.3593C26.9253 58.3593 26.9253 58.515 26.8994 58.541V58.5929V58.7747C26.8994 58.8266 26.8994 58.9045 26.8994 58.9823V59.0862L26.8474 59.216V59.3977L26.8994 59.6833V59.839C26.8994 59.839 26.9513 59.9688 26.9513 60.0208V60.0986V60.1506C26.9772 60.2284 27.0032 60.3063 27.0032 60.4102V60.6178L27.0292 60.7217L27.3147 60.8255H27.4705H27.6003H27.6522C27.6522 60.8255 27.8339 60.7736 27.8599 60.7736C27.9378 60.7736 27.9897 60.7736 28.0157 60.7736H28.0935L28.1974 60.8255H28.2493C28.2493 60.8255 28.431 60.7736 28.5089 60.7736H28.6906C28.6906 60.7736 28.8464 60.7736 28.8724 60.7996H28.9243L29.0022 60.8255C29.0281 60.8255 29.0541 60.8255 29.08 60.8255C29.106 60.8255 29.132 60.8255 29.1579 60.8255H29.2098H29.4175H29.6512H29.8329H29.9367H30.0665L30.3521 60.6957L30.5079 60.6178L30.6377 60.54L30.7155 60.4361L30.8194 60.3063C30.8194 60.3063 30.8454 60.2284 30.8973 60.1506L30.9492 60.0727V59.9948L31.0011 59.839V59.7871V59.5794V59.2679L30.9492 59.1121V58.9304L30.8973 58.7487C30.8973 58.7227 30.8973 58.6708 30.8973 58.6449C30.8973 58.5929 30.8973 58.567 30.8973 58.567V58.4891C30.8973 58.4891 30.8454 58.4112 30.7934 58.3074L30.7415 58.2035L30.6636 58.0737L30.3781 57.918H30.2483L30.1185 57.892L29.6512 57.8401H29.5214L29.3396 57.7622V57.6064C29.3396 57.6064 29.3396 57.6064 29.3137 57.6064C29.2877 57.6064 29.2877 57.6324 29.2358 57.7103C29.1839 57.7882 29.1579 57.8141 29.1579 57.8141H29.106L28.8983 57.7882C28.8983 57.7882 28.7945 57.8401 28.7166 57.8401H28.6647L28.3531 57.8141H28.1974C28.1195 57.866 28.0416 57.866 27.9637 57.8401L27.8599 57.7882L27.5484 57.8401C27.5484 57.8401 27.4186 57.866 27.3666 57.8401H27.2888L27.0292 57.892L26.9772 57.9958L27.0551 57.918ZM26.9772 64.8754L27.0551 64.9533H27.159C27.159 64.9533 27.2888 64.9533 27.3666 64.9792H27.4445H27.756C27.8599 64.9792 27.9118 64.9792 27.9378 64.9792H27.9897H28.0416C28.1714 64.9273 28.2493 64.9013 28.2753 64.9273L28.3791 65.0571V64.9533C28.3791 64.9533 28.4051 64.9013 28.457 64.9013C28.4829 64.9013 28.5608 64.9273 28.6647 64.9792L28.8204 65.0571L28.9762 65.0052H29.0281C29.0281 65.0052 29.1579 65.0052 29.2358 65.0052H29.4694L29.6512 64.9533L29.781 64.9013C29.781 64.9013 29.9108 64.8754 29.9887 64.8754H30.2483H30.404L30.5857 64.7975L30.8454 64.7196L30.9232 64.6677L31.0271 64.5898L31.1309 64.486L31.2348 64.3821L31.3126 64.2523L31.4165 64.0966L31.4944 63.9408V63.6552L31.5203 63.6033C31.5203 63.5254 31.5203 63.4735 31.5203 63.4216V63.3697V63.162H31.6761C31.6761 63.162 31.6242 63.136 31.5463 63.0841C31.4684 63.0322 31.4165 63.0062 31.3905 63.0062V62.9543L31.3126 62.7466L31.2348 62.6168L31.1828 62.513L30.9492 62.2534L30.7934 62.1495C30.7934 62.1495 30.6636 62.1495 30.6117 62.0976H30.5598L30.43 61.9678H30.3781C30.3781 61.9678 30.2483 61.9678 30.1963 61.9678H30.1185L29.9367 61.9418L29.6771 61.8899H29.5214C29.4954 61.8899 29.4435 61.8899 29.4175 61.8899C29.3916 61.8899 29.3656 61.8899 29.3396 61.8899H29.106C29.106 61.8899 28.9502 61.8899 28.9243 61.8899H28.8464H28.6647H28.5608C28.5608 61.8899 28.4829 61.8899 28.457 61.8899H28.3791V61.864C28.3531 61.864 28.3012 61.864 28.2753 61.864C28.2233 61.864 28.2233 61.864 28.1974 61.864H28.0416C28.0416 61.864 27.9378 61.864 27.9118 61.838H27.8339L27.6782 61.812L27.3666 61.864L27.2628 61.9159L27.107 61.9678L27.0551 62.0457L26.9772 62.2534V62.3832C26.9772 62.3832 26.9772 62.4351 26.9772 62.4611C26.9772 62.487 26.9772 62.5389 26.9772 62.5649V62.6428L26.9513 62.8764V63.162C26.9513 63.162 26.9513 63.3177 26.9513 63.3437V63.3956L26.9253 63.6033V63.9148C26.9253 63.9148 26.9772 64.0706 26.9772 64.1225V64.6158V64.7975V64.8754Z" fill="#FFF1E3"/>
<path d="M36.5567 61.4745V61.5784C36.5567 61.5784 36.5567 61.7082 36.5567 61.7861V61.864L36.5048 61.9938L36.4009 62.2014H36.5048C36.5048 62.2014 36.5567 62.2274 36.5567 62.2793V62.4091V62.513C36.5567 62.5909 36.5567 62.6428 36.5307 62.6947L36.4788 62.7726V63.1101C36.4788 63.1101 36.5048 63.2139 36.5048 63.2918V63.5514C36.5048 63.5514 36.5048 63.6812 36.5048 63.7331V63.811L36.4528 63.9927V64.2783L36.4788 64.3302C36.4788 64.3821 36.4788 64.46 36.4788 64.5379C36.4788 64.6158 36.4788 64.6677 36.4788 64.6937V64.7715V64.9273C36.4788 64.9792 36.4788 65.0311 36.4788 65.109V65.3686C36.4788 65.3686 36.4788 65.4725 36.4788 65.5244V65.6023C36.5048 65.6802 36.5048 65.758 36.4788 65.81V65.8878L36.4269 66.0176V66.1994V66.4071C36.4269 66.459 36.4009 66.5109 36.349 66.5109H36.2971L36.1413 66.5888C36.0894 66.5888 36.0115 66.6147 35.9336 66.6147H35.7C35.7 66.6147 35.5702 66.6147 35.5183 66.6147H35.4404V66.5888C35.3885 66.5888 35.3106 66.6147 35.2067 66.6147C35.1029 66.6147 35.051 66.5888 35.025 66.5369V66.4849L34.9731 66.2513V66.0955H35.1288C35.1288 66.0955 35.0769 66.0436 34.999 65.9917C34.9212 65.9398 34.8952 65.8878 34.8952 65.8619V65.6282C34.8952 65.6282 34.8952 65.4984 34.8952 65.4206L34.9731 65.0311L35.025 64.8754V64.7196L34.999 64.5898C34.999 64.486 34.999 64.4341 34.999 64.3821V64.3042L35.025 64.1485V63.9927V63.8889C34.999 63.7591 34.9731 63.6812 34.9731 63.6552V63.5514C34.9731 63.5514 34.9471 63.4735 34.9212 63.3956C34.9212 63.3437 34.9212 63.2918 34.9212 63.2399V63.162V62.6947C34.8952 62.6168 34.8952 62.5389 34.9212 62.487L34.9731 62.2793V62.2274C34.9731 62.2274 34.9212 62.0716 34.9212 62.0197V61.9418V61.8899C34.9212 61.864 34.9212 61.838 34.9212 61.812C34.9212 61.7861 34.9212 61.7342 34.9212 61.7082V61.6303V61.5524C34.9212 61.5005 34.9212 61.4486 34.9212 61.4226V61.3188V61.2928C34.9212 61.189 34.9212 61.1111 34.9212 61.0851V61.0073V60.7217C34.8692 60.6438 34.8692 60.5919 34.8692 60.54V60.4361V60.3582V60.3063C34.8692 60.3063 34.8692 60.2025 34.8692 60.1765C34.8692 60.1506 34.8692 60.0986 34.8692 60.0727V59.9429L34.8952 59.7871V59.7092C34.8952 59.7092 34.8952 59.6314 34.8952 59.6054C34.8952 59.5535 34.8952 59.5535 34.8952 59.5275V59.4756V59.2939V59.1641H34.9212C34.9212 59.1381 34.9212 59.1121 34.9212 59.0602C34.9212 59.0083 34.9212 58.9823 34.9212 58.9564L35.025 58.8525H34.9471C34.9471 58.8525 34.8952 58.8525 34.8952 58.7747V58.5929L34.9212 58.4372V58.3593C34.9212 58.3593 34.8692 58.2035 34.8692 58.1776V58.1256L34.8952 57.9958V57.9439C34.8952 57.9439 34.8433 57.7882 34.8433 57.7362V57.6584V57.5286C34.8433 57.5286 34.7914 57.3728 34.7914 57.2949V57.217V57.0093V56.9055C34.7914 56.9055 34.7914 56.7497 34.8433 56.6978C34.8692 56.6459 34.9471 56.6199 35.051 56.6199H35.2327H35.3625H35.5702H35.674H35.7C35.7 56.6199 35.8298 56.568 35.9077 56.568H35.9855L36.1413 56.6199C36.2451 56.6199 36.323 56.6978 36.375 56.8017C36.375 56.8017 36.4009 56.9834 36.4009 57.0613V57.1911V57.3468C36.4009 57.3468 36.4528 57.5026 36.4528 57.5545V57.6324V57.7103C36.4528 57.7103 36.4528 57.866 36.4528 57.892V58.0218L36.4009 58.2035V58.3593L36.375 58.4891V58.567C36.375 58.567 36.375 58.6708 36.349 58.6968L36.2971 58.7747C36.2971 58.7747 36.2971 58.9564 36.2971 59.0083V59.0862L36.2711 59.3717C36.2711 59.4237 36.2711 59.4756 36.2711 59.5535V59.6314C36.2711 59.6314 36.2711 59.8131 36.2711 59.865V59.9688V60.0986C36.2711 60.2025 36.2711 60.2544 36.2711 60.3063V60.4102C36.2711 60.4102 36.2711 60.5659 36.2711 60.5919V60.6957C36.2711 60.6957 36.349 60.8255 36.349 60.8775C36.349 60.9294 36.349 60.9813 36.349 61.0332V61.1371L36.323 61.2409L36.4009 61.4745C36.4009 61.4745 36.4269 61.6044 36.4269 61.6563L36.5567 61.4745Z" fill="#FFF1E3"/>
<path d="M42.1901 66.433H42.1122L41.9045 66.3811C41.8526 66.4071 41.8007 66.433 41.7488 66.4071H41.6709L41.4373 66.3811C41.3594 66.3811 41.3074 66.3811 41.2555 66.3551L41.0998 66.2772H40.918C40.918 66.2772 40.7623 66.2513 40.6844 66.2253L40.4248 66.1474H40.321C40.321 66.1474 40.1652 66.0955 40.1133 66.0696L39.9835 65.9917H39.9315V65.9657C39.8277 65.9398 39.7758 65.9138 39.7498 65.8878L39.6979 65.8359L39.5681 65.7321H39.5421C39.5421 65.7321 39.4123 65.6282 39.3864 65.6023L39.3344 65.5244C39.3344 65.5244 39.1787 65.4725 39.1008 65.4205H39.0489C39.0489 65.4205 38.997 65.3686 38.971 65.3427C38.945 65.3427 38.9191 65.2907 38.8931 65.2648L38.8412 65.1869C38.8412 65.1869 38.7893 65.0311 38.7893 64.9792C38.7893 64.9533 38.7893 64.8754 38.8412 64.7975V64.7456C38.8412 64.7456 38.9191 64.6158 38.971 64.5638L39.0489 64.486L39.1787 64.3821L39.2566 64.2523C39.2566 64.2523 39.3604 64.1225 39.4123 64.0966C39.4643 64.0966 39.5162 64.0966 39.5421 64.0966H39.5941L39.646 64.1225C39.7239 64.1485 39.8017 64.2004 39.8537 64.2523L39.9575 64.3302H40.0354C40.0354 64.3302 40.1652 64.434 40.1911 64.434H40.2171L40.3729 64.5638L40.5027 64.6158L40.6325 64.6937L40.7623 64.7456C40.7623 64.7456 40.944 64.7975 40.97 64.8235L41.0738 64.9013H41.2036L41.3075 64.9533C41.3853 64.9533 41.4373 64.9533 41.4892 65.0052L41.5671 65.0571H41.619C41.619 65.0571 41.7747 65.0052 41.8007 65.0571H41.8526H42.1382H42.4238H42.6055H42.7093L42.8651 65.0052C42.8651 65.0052 42.9949 64.9273 43.0468 64.9273H43.3064L43.4881 64.8754C43.592 64.8494 43.6699 64.8494 43.6958 64.8754H43.7477H43.7997C43.9035 64.8494 43.9554 64.8235 43.9814 64.8235H44.0593L44.215 64.7715L44.3448 64.7196L44.5006 64.6158L44.6044 64.5638L44.7083 64.434L44.7602 64.3042L44.8381 64.1485L45.0198 63.8889L45.0717 63.811V63.7591L45.1496 63.5514V63.4475V63.162L45.0977 63.0841L45.0198 62.9803L44.89 62.8245L44.8121 62.7207L44.6823 62.6168L44.5785 62.5389L44.4487 62.461L44.3189 62.4091L44.1371 62.3053L44.0852 62.2534H44.0333C44.0333 62.2534 43.8516 62.2014 43.8256 62.2014H43.7477L43.7218 62.1755C43.7218 62.1755 43.6439 62.1755 43.6179 62.1236C43.592 62.0976 43.566 62.0716 43.5401 62.0457C43.5401 62.0457 43.5141 62.0457 43.4622 62.0976C43.4362 62.1236 43.4103 62.1495 43.3843 62.1236L43.3064 62.0716L43.1507 61.9938L42.943 61.9418L42.6574 61.8899L42.5016 61.838H42.3718L42.1901 61.812C42.0863 61.812 42.0084 61.812 41.9824 61.7601L41.9305 61.7082H41.8786C41.8786 61.7082 41.8007 61.7082 41.7488 61.6822H41.6709L41.6449 61.6303C41.5411 61.6303 41.4632 61.6043 41.4373 61.5784L41.3594 61.5265L41.1517 61.4486L40.8402 61.3707L40.7104 61.3188L40.5806 61.2409H40.5027C40.5027 61.2409 40.3729 61.163 40.321 61.1371L40.2431 61.0851L40.1133 60.9813H40.0873C40.0873 60.9813 39.9315 60.9034 39.9056 60.8775L39.8277 60.8255C39.8277 60.8255 39.6979 60.7736 39.6719 60.7217V60.6698L39.5681 60.6178C39.4902 60.54 39.4383 60.488 39.3864 60.4621L39.2566 60.3323C39.2566 60.3323 39.1268 60.2804 39.1008 60.2284L39.0489 60.1765C39.0489 60.1765 38.9191 60.0208 38.9191 59.9948V59.9169L38.7633 59.6573C38.7374 59.6054 38.7114 59.5275 38.7374 59.4496V59.3458C38.7374 59.3458 38.7374 59.216 38.7374 59.1641V59.1121V59.0343V58.9045V58.7747V58.6448V58.4631C38.7374 58.4631 38.7374 58.3074 38.7633 58.2814L38.8152 58.2295V58.0478C38.8152 58.0478 38.8672 57.9958 38.8931 57.8401V57.7622L39.0489 57.5285L39.1008 57.3468L39.1527 57.243L39.2306 57.1132C39.2306 57.1132 39.2825 56.9834 39.3604 56.9314L39.4383 56.8795L39.5421 56.8016C39.5421 56.8016 39.62 56.6718 39.6979 56.6459H39.7758L39.8796 56.542C39.9835 56.4642 40.0354 56.4122 40.0613 56.4122C40.1133 56.3603 40.1652 56.3344 40.2171 56.3344L40.4248 56.2565L40.6584 56.1267L40.8142 56.0748L40.8661 56.0228C40.8661 56.0228 40.97 55.945 41.0219 55.945H41.2555L41.3594 55.919L41.5151 55.8671C41.5151 55.8671 41.6449 55.8411 41.7747 55.8411H41.9565L42.0863 55.8151H42.294L42.4497 55.7892H42.6055L42.7872 55.7373H42.917L42.9949 55.7892H43.2026H43.3583C43.4362 55.7892 43.4881 55.7892 43.566 55.8411L43.6699 55.893L43.8256 55.945C43.8256 55.945 43.9554 55.945 44.0073 55.9709H44.0852L44.267 56.0488V56.2565C44.267 56.2565 44.3189 56.2305 44.3708 56.1786C44.4227 56.1267 44.4487 56.1267 44.4487 56.1267L44.5006 56.1786L44.6823 56.2565C44.6823 56.2565 44.8121 56.2824 44.864 56.3344L44.916 56.3863C44.916 56.3863 45.0717 56.4122 45.0977 56.4382L45.1756 56.4901L45.2794 56.568C45.2794 56.568 45.4092 56.6459 45.4611 56.7238L45.539 56.8016C45.539 56.8016 45.6688 56.8795 45.6948 56.9055C45.7207 56.9315 45.7727 56.9834 45.7986 57.0353C45.7986 57.0872 45.7986 57.1132 45.7986 57.1651V57.243L45.7207 57.3987C45.7207 57.4507 45.6688 57.5285 45.6429 57.6064C45.6429 57.6583 45.5909 57.6843 45.539 57.7362L45.4352 57.8401L45.3573 57.892L45.2535 58.0218C45.2535 58.0218 45.1496 58.1256 45.0717 58.1256C45.0198 58.1256 44.9938 58.1256 44.9419 58.0997C44.89 58.0997 44.864 58.0737 44.8381 58.0478L44.7083 57.9439L44.5785 57.866L44.267 57.7362L44.1631 57.6843L44.0593 57.6324L43.8775 57.5545L43.7737 57.5026H43.7218C43.7218 57.5026 43.566 57.5026 43.5141 57.4507L43.4362 57.3987H43.3064L43.1507 57.3468H43.0468L42.917 57.2949H42.8391C42.8391 57.2949 42.6834 57.2689 42.6574 57.243H42.5795L42.1382 57.217H42.0343L41.9824 57.243C41.9045 57.243 41.8267 57.243 41.7747 57.243H41.6709C41.6449 57.2689 41.593 57.2949 41.5151 57.3209H41.4373L41.2815 57.3987L41.1517 57.4507L41.0219 57.5285L40.918 57.5805L40.7363 57.7103C40.7363 57.7103 40.6844 57.7362 40.6584 57.7882C40.6325 57.8141 40.6065 57.8401 40.5806 57.8141L40.4767 57.7622V57.866L40.5027 57.918C40.5027 57.9699 40.4767 58.0218 40.3988 58.0737L40.321 58.1256L40.269 58.3333C40.269 58.3333 40.269 58.4891 40.269 58.541V58.6448L40.321 58.9564L40.3729 59.0602L40.4508 59.19L40.6065 59.4237L40.7104 59.5275L40.8402 59.6573H40.8921C40.8921 59.6573 41.0478 59.7092 41.0998 59.7352H41.1776C41.1776 59.7352 41.2296 59.7871 41.2815 59.7871C41.3074 59.7871 41.3594 59.8131 41.4113 59.839L41.5671 59.9169L41.7228 59.9688H41.8786V60.2284C41.8786 60.2284 41.9305 60.1765 41.9824 60.1246C42.0343 60.0727 42.0603 60.0467 42.0863 60.0467L42.1641 60.0986H42.242C42.242 60.0986 42.3199 60.0986 42.3459 60.1246L42.3978 60.1765L42.7612 60.2544L42.891 60.3063C42.891 60.3063 42.943 60.3063 42.9689 60.3063C43.0208 60.3063 43.0468 60.3063 43.0728 60.3323H43.1766L43.5141 60.4102C43.6179 60.4102 43.6958 60.4621 43.7218 60.488L43.7737 60.54H43.8775H43.9295C44.0073 60.54 44.0852 60.54 44.1371 60.5919L44.215 60.6438L44.4746 60.7477H44.5266L44.7083 60.7996C44.7083 60.7996 44.7862 60.8255 44.8381 60.8775L44.89 60.9294L45.0717 61.0073H45.0977C45.0977 61.0073 45.2535 61.0851 45.2794 61.1111L45.3313 61.163L45.4611 61.2409L45.6429 61.3967C45.6429 61.3967 45.6948 61.4226 45.7207 61.4486C45.7207 61.4486 45.7727 61.4745 45.7727 61.5005V61.5524H45.8246C45.9025 61.6043 45.9544 61.6563 45.9804 61.7082L46.0323 61.7861L46.1102 61.8899V61.9678C46.1102 61.9678 46.214 62.0976 46.24 62.1495C46.2659 62.2014 46.2919 62.2534 46.2919 62.3312L46.3438 62.487L46.3957 62.5649V62.6687C46.3957 62.6687 46.4736 62.7985 46.4736 62.8245V62.8764L46.4996 62.9283C46.5515 63.0322 46.5774 63.0841 46.5774 63.1101V63.2399V63.3177C46.5774 63.3177 46.6034 63.4735 46.6034 63.4995V63.6033L46.5774 63.7331V63.9408L46.5515 63.9927C46.5515 64.0187 46.5515 64.0706 46.5255 64.1225L46.4736 64.2004L46.4217 64.3562L46.3698 64.5379L46.3178 64.6677V64.7196C46.3178 64.7196 46.2659 64.8754 46.214 64.9273L46.1361 64.9792C46.1361 64.9792 46.0582 65.1609 46.0063 65.2129L45.9284 65.2907V65.3427C45.9284 65.3427 45.8246 65.4465 45.7467 65.4984H45.6688C45.6688 65.4984 45.5909 65.6542 45.5131 65.6802L45.4092 65.7321C45.4092 65.7321 45.3054 65.8359 45.2535 65.8619H45.1756L45.0458 65.9657H44.9679H44.7602V66.0696C44.7602 66.0696 44.7342 66.1474 44.6564 66.1474C44.6044 66.1474 44.5525 66.1474 44.5266 66.1474L44.215 66.2253H44.0852L43.9295 66.2772C43.8775 66.3032 43.8256 66.3292 43.7477 66.3292H43.6439L43.4881 66.3811C43.4881 66.3811 43.4103 66.3811 43.3064 66.3811H43.0728L42.917 66.4071C42.8391 66.433 42.7612 66.459 42.7093 66.433L42.6314 66.3811L42.3459 66.433C42.3459 66.433 42.242 66.433 42.1641 66.4071L42.1901 66.433Z" fill="#FFF1E3"/>
<path d="M49.6408 61.864C49.6408 61.864 49.6408 61.7082 49.6408 61.6563V61.5005L49.6927 61.3967V61.2409C49.6927 61.2409 49.6667 61.1371 49.6667 61.0592V60.9813L49.7187 60.7996L49.7706 60.6698V60.6179C49.7706 60.6179 49.7187 60.4621 49.7187 60.4102L49.7706 60.3323C49.7706 60.3323 49.7187 60.1246 49.7187 60.0727V59.9688V59.9169C49.7187 59.839 49.7187 59.7612 49.7187 59.7092V59.6314V59.5535C49.7187 59.4756 49.7187 59.3977 49.7187 59.3717V59.2939L49.6927 59.1121V58.9823L49.6667 58.9304C49.6667 58.8785 49.6667 58.8266 49.6667 58.7487C49.6667 58.7487 49.6667 58.6968 49.6667 58.6708C49.6667 58.6449 49.6667 58.6189 49.6927 58.5929L49.7706 58.5151H49.6927C49.6927 58.5151 49.6148 58.4372 49.6408 58.3074V58.2295V58.0737L49.5629 57.918L49.485 57.7362H49.3812L49.1735 57.6843H49.0696H49.0177C48.9398 57.7103 48.862 57.7103 48.81 57.6843H48.7322L48.4466 57.6584H48.2649H47.9533H47.7976C47.7976 57.6584 47.6678 57.7362 47.5899 57.7362H47.538C47.538 57.7362 47.4341 57.7362 47.3822 57.7103H47.3043H47.2784C47.2005 57.7103 47.1486 57.7362 47.1226 57.7362H47.0188L46.8111 57.7103C46.7592 57.7103 46.7072 57.7103 46.6813 57.6584V57.5805L46.5774 57.3987C46.5774 57.3728 46.5774 57.3209 46.5774 57.217V56.9834C46.5774 56.9315 46.5774 56.8795 46.5774 56.8017C46.5774 56.7757 46.5774 56.7238 46.6294 56.6719L46.6813 56.594C46.6813 56.594 46.7851 56.4642 46.889 56.4642H47.0188H47.2005H47.2784C47.2784 56.4642 47.4082 56.4122 47.512 56.4122H48.0053C48.0053 56.4122 48.161 56.4122 48.213 56.4122H48.3168L48.6543 56.4382H48.7062C48.7062 56.4382 48.836 56.4382 48.8879 56.4382H48.9398H49.1216H49.3552C49.3552 56.4382 49.511 56.4382 49.5629 56.4642H49.6408L49.6667 56.4901C49.7187 56.4642 49.7965 56.4382 49.9004 56.4122H50.0821H50.2119H50.3677C50.3677 56.4122 50.5494 56.3863 50.5754 56.4122H50.6532L50.835 56.4642H51.0167H51.1984H51.2763L51.5619 56.5161H51.6657C51.6657 56.5161 51.7955 56.4382 51.8993 56.4382H52.2109L52.2888 56.4122H52.6262H52.7301C52.756 56.4122 52.808 56.4122 52.8599 56.3603C52.9118 56.3603 52.9378 56.3603 52.9637 56.3863L53.0676 56.542L53.1455 56.3863C53.1455 56.3863 53.2233 56.3863 53.3272 56.3863C53.457 56.3863 53.5608 56.3863 53.5868 56.3863H53.6906C53.7425 56.3603 53.8464 56.3344 53.9502 56.3344C53.9502 56.3344 54.106 56.3603 54.132 56.3863C54.1839 56.4382 54.2098 56.4901 54.2098 56.5161C54.2098 56.568 54.2098 56.6199 54.2098 56.6459V56.7238V56.8017C54.2358 56.8795 54.2358 56.9574 54.2098 57.0093V57.0872V57.1391C54.2098 57.243 54.2098 57.3209 54.2098 57.3728C54.2098 57.4247 54.1839 57.4766 54.132 57.5545C54.132 57.5805 54.0541 57.6064 53.9762 57.6324H53.8464L53.7685 57.6584C53.7166 57.6584 53.6387 57.6843 53.5349 57.6843H53.457C53.457 57.6843 53.3272 57.6843 53.2753 57.6843H53.1974C53.1974 57.6843 53.0157 57.7362 52.9637 57.7362H52.808H52.6782L52.4705 57.6843H52.3407C52.3407 57.6843 52.2109 57.7362 52.133 57.7362C52.0551 57.7362 52.0032 57.7103 51.9772 57.7103H51.9253H51.7695L51.458 57.7622L51.3542 57.8141L51.2763 57.9439L51.2244 58.0997C51.2244 58.0997 51.2244 58.2295 51.2244 58.2814V58.3593V58.8266V58.9823L51.1725 59.2939V59.5275H51.0946H51.0686C51.0686 59.5275 51.0686 59.5794 51.1465 59.6314C51.1984 59.6833 51.2244 59.7092 51.1984 59.7352V59.839V60.0208C51.1984 60.0727 51.1984 60.1246 51.1984 60.1765V60.2544L51.1725 60.3842V60.5919C51.1725 60.5919 51.2244 60.6957 51.2244 60.7736V60.9813V61.0592C51.2244 61.1371 51.2244 61.189 51.2244 61.2409V61.3188L51.1984 61.5005V61.6303C51.1984 61.6303 51.2503 61.7861 51.2503 61.838V61.8899L51.1984 62.0976V62.3313L51.2503 62.3832V62.5389V62.5909V62.9283C51.2503 62.9283 51.2503 63.0322 51.2503 63.1101V63.2139L51.2244 63.2399C51.2244 63.2399 51.2244 63.2918 51.2763 63.3178C51.2763 63.3697 51.2763 63.3956 51.2763 63.3956V63.4476L51.2503 63.6293C51.2503 63.6552 51.2503 63.7072 51.3023 63.7591C51.3023 63.811 51.3023 63.8629 51.3023 63.8889L51.1984 63.9927L51.3023 64.0446C51.3023 64.0446 51.3542 64.0706 51.3542 64.1225C51.3542 64.1225 51.3542 64.2004 51.3023 64.2783V64.3821L51.2763 64.46L51.3282 64.6677C51.3282 64.6677 51.3282 64.8235 51.3282 64.8494V64.9273C51.3282 64.9273 51.3282 65.0571 51.3282 65.109V65.1869V65.6542C51.3282 65.6802 51.3282 65.7321 51.3023 65.81V65.8878V66.0696V66.1475C51.3023 66.1475 51.3023 66.2253 51.2763 66.2773L51.2244 66.3551C51.2244 66.3551 51.1205 66.459 51.0167 66.4849H50.783C50.783 66.4849 50.6273 66.4849 50.5754 66.4849H50.4975C50.4196 66.5109 50.3677 66.5369 50.3158 66.5369H50.2379H50.186C50.0821 66.5369 49.9783 66.5369 49.9263 66.5369C49.8744 66.5369 49.8225 66.5109 49.7965 66.4849C49.7706 66.4849 49.7446 66.433 49.7446 66.3811C49.7187 66.2513 49.6927 66.1734 49.6927 66.1475V65.9917V65.9398C49.6927 65.8619 49.6927 65.784 49.6927 65.7321V65.6542C49.6667 65.5504 49.6408 65.4984 49.6408 65.4725C49.6408 65.4465 49.6408 65.3946 49.6667 65.3427V65.2648V65.2388V65.1609C49.6667 65.1609 49.6667 65.0831 49.6927 65.0311L49.7446 64.9533V64.8754C49.7446 64.8754 49.7187 64.7456 49.7187 64.6677V64.46C49.7187 64.46 49.7187 64.2783 49.7187 64.2523V64.1745L49.8744 64.0187H49.7187C49.7187 64.0187 49.6667 63.9668 49.6667 63.9148C49.6667 63.8629 49.6667 63.837 49.6927 63.785V63.7072V63.5514C49.6927 63.4476 49.6667 63.3697 49.6667 63.3178V63.0062V62.9803C49.6667 62.9024 49.6667 62.8245 49.6667 62.7726V62.6687L49.6408 62.487V62.2014V61.9418V61.864Z" fill="#FFF1E3"/>
<path d="M55.4819 62.9283V62.8764V62.8245C55.4819 62.7726 55.4819 62.6947 55.5079 62.6168V62.5389L55.5338 62.487V62.2014V62.0457C55.5338 62.0197 55.5338 61.9678 55.5338 61.9418C55.5338 61.9159 55.5338 61.8899 55.5338 61.838V61.7342V61.7082V61.5265V61.4486V61.3967L55.5079 61.2409V61.0073V60.8775C55.5079 60.7736 55.5079 60.7217 55.5079 60.6698V60.6178L55.5338 60.4621V60.4102C55.5338 60.4102 55.4819 60.3063 55.4819 60.2284V59.9429C55.4819 59.9429 55.4819 59.7871 55.4819 59.7352V59.6313V59.6054C55.4559 59.5275 55.43 59.4496 55.4559 59.3977V59.3198V59.2679C55.43 59.19 55.404 59.1381 55.404 59.1121C55.404 59.0862 55.404 59.0343 55.404 58.9823V58.8785C55.404 58.8785 55.404 58.7227 55.404 58.6708V58.567V58.515V58.3593V58.3074V58.2554C55.404 58.2554 55.3521 58.0997 55.3781 58.0478V57.9699V57.6843C55.3781 57.6324 55.3521 57.5545 55.3521 57.4766C55.3521 57.3987 55.3521 57.3728 55.3521 57.3468V57.2949V57.243C55.3521 57.1651 55.3521 57.0872 55.3521 57.0353L55.404 56.9574V56.7497C55.404 56.7497 55.404 56.594 55.4559 56.542L55.5338 56.4642C55.5338 56.4642 55.6117 56.3344 55.6636 56.3084H55.7156H55.8973C56.0011 56.3084 56.053 56.3084 56.105 56.3084H56.1828L56.3126 56.3344H56.4424L56.4944 56.2824H56.5722C56.5722 56.2824 56.6761 56.2824 56.728 56.2824H56.8319C56.8319 56.2824 57.0136 56.2824 57.0655 56.2824H57.2732L57.3511 56.3344L57.4809 56.2824H57.5587C57.5587 56.2824 57.7145 56.2305 57.7405 56.2565H57.7924L57.8443 56.4122C57.8443 56.4122 57.8703 56.4122 57.9222 56.3344C57.9741 56.2565 58.0001 56.2305 58.0001 56.2305C58.078 56.2305 58.1039 56.2305 58.1299 56.2305H58.1818H58.3376H58.3895C58.3895 56.2305 58.5712 56.2305 58.6231 56.2305H58.727H58.7789C58.8827 56.2046 58.9347 56.2046 58.9606 56.2305H59.0385C59.1164 56.2046 59.1943 56.1786 59.2721 56.1786C59.3241 56.1786 59.376 56.1786 59.4279 56.2046H59.4798C59.4798 56.2046 59.6616 56.2046 59.7394 56.2046H59.7914C59.7914 56.2046 59.9471 56.2565 59.9731 56.2824L60.051 56.3344H60.1808C60.1808 56.3344 60.2586 56.3344 60.2846 56.3344L60.3884 56.3863H60.4923H60.5442C60.6481 56.3863 60.7519 56.3863 60.8038 56.4122H60.9336L61.1932 56.568H61.2192C61.2192 56.568 61.3749 56.6199 61.4528 56.6718L61.6086 56.7757C61.6086 56.7757 61.7384 56.7757 61.7644 56.8276L61.8163 56.8795L61.998 57.0093L62.0759 57.0872C62.0759 57.0872 62.2057 57.217 62.2316 57.243L62.2836 57.3209L62.3355 57.5026L62.4393 57.4247H62.4653C62.4653 57.4247 62.5172 57.4247 62.5432 57.4766C62.5432 57.5285 62.5691 57.5545 62.5951 57.5805L62.8547 58.0737C62.8547 58.0737 62.8547 58.1256 62.9066 58.1776C62.9066 58.2295 62.9326 58.2554 62.9585 58.3074V58.4372L63.0364 58.567L63.0883 58.7487L63.1403 58.9045C63.1403 58.9045 63.1922 59.0602 63.1922 59.1121V59.216C63.1922 59.216 63.2701 59.3458 63.2701 59.4237V59.5015V59.6054C63.2701 59.6833 63.2701 59.7352 63.2181 59.8131L63.1662 59.9169C63.1662 59.9169 63.1662 60.0208 63.1662 60.0467C63.1662 60.0727 63.1662 60.0986 63.1662 60.1246V60.2025C63.1662 60.2025 63.1662 60.3323 63.1662 60.3842L63.1143 60.488L63.0624 60.7217C63.0624 60.7217 63.0624 60.8515 63.0105 60.9294L62.9585 61.0332C62.9585 61.0332 62.9585 61.163 62.8807 61.2149L62.8287 61.2669C62.8287 61.2669 62.8028 61.3967 62.7509 61.4745L62.6989 61.5265L62.6211 61.6563C62.6211 61.6563 62.5691 61.7601 62.5172 61.812L62.3874 61.9159L62.3095 61.9938L62.2057 62.0716L62.1278 62.1755L62.0759 62.2274C62.0759 62.2274 61.972 62.3572 61.9201 62.3832L61.8422 62.4351L61.7644 62.513C61.7644 62.513 61.6605 62.5908 61.5826 62.6428H61.4788L61.3749 62.7466C61.2971 62.7985 61.2451 62.8505 61.1932 62.8505H61.1153L60.8557 63.0322L60.7779 63.136L60.8817 63.2658L61.1153 63.5254C61.1153 63.5254 61.1932 63.5773 61.2451 63.6552C61.2971 63.7072 61.323 63.7591 61.3749 63.837L61.4528 63.9668C61.4528 63.9668 61.5048 64.0446 61.5567 64.0706C61.6086 64.0966 61.6086 64.1485 61.5826 64.1744L61.4788 64.2783H61.6086L61.6865 64.4081C61.7124 64.46 61.7384 64.486 61.7644 64.5119C61.7644 64.5119 61.7903 64.5379 61.8163 64.5639V64.6158L62.024 64.8235L62.1538 64.9533L62.2057 65.0052C62.2057 65.0052 62.2836 65.0831 62.3355 65.135L62.3874 65.1869H62.4134C62.4134 65.1869 62.4653 65.2648 62.4912 65.2907C62.4912 65.3167 62.5172 65.3427 62.5432 65.3427V65.3946L62.6989 65.5244L62.7509 65.5763L62.8547 65.7321L62.9066 65.81L62.9585 65.8619C62.9585 65.8619 63.0883 66.0176 63.1143 66.0696L63.1662 66.1994C63.1662 66.1994 63.1922 66.3551 63.1662 66.3811C63.1403 66.4071 63.0624 66.433 62.9845 66.459H62.9326C62.9326 66.459 62.7768 66.459 62.7249 66.459H62.5691H62.3355C62.3095 66.459 62.2836 66.459 62.2316 66.459C62.2057 66.459 62.1538 66.459 62.1278 66.459H62.0499H61.998C61.8942 66.459 61.8422 66.459 61.8163 66.459H61.7644C61.7644 66.459 61.5826 66.4071 61.5567 66.3811C61.4788 66.3551 61.4269 66.3032 61.4009 66.2253L61.2971 66.0696L61.2192 65.9398H61.1932C61.1932 65.9398 61.0894 65.81 61.0634 65.7321L61.0115 65.6542L60.9336 65.5763L60.8038 65.4465L60.6481 65.2388V65.1869C60.6481 65.1869 60.5183 65.0311 60.4923 65.0052V64.9273C60.4923 64.9273 60.3365 64.8235 60.3106 64.7715L60.2327 64.6677L60.1288 64.5639L59.999 64.3821L59.8952 64.2264C59.8952 64.2264 59.8692 64.1225 59.8692 64.0966V64.0446H59.8433C59.7654 63.9668 59.7394 63.9148 59.7135 63.8889V63.811L59.5837 63.6293C59.5577 63.6033 59.5317 63.5774 59.5317 63.5514C59.5317 63.5254 59.5058 63.4995 59.4798 63.4735L59.4279 63.3956L59.2981 63.2658L59.1683 63.1879H59.0385L58.727 63.136H58.5972L58.4674 63.1879H58.4414C58.4414 63.1879 58.2856 63.1879 58.2597 63.1879H58.1818L57.9741 63.136C57.8962 63.162 57.8443 63.1879 57.8184 63.1879H57.7405H57.4289H57.3511C57.3511 63.1879 57.2472 63.1879 57.2213 63.1879C57.1693 63.1879 57.1434 63.1879 57.1174 63.1879H56.9617L56.8838 63.2658L56.754 63.4995V63.6812C56.754 63.6812 56.754 63.7331 56.754 63.7591C56.754 63.785 56.754 63.837 56.754 63.8629V63.9408L56.702 64.0187V64.2264L56.728 64.6158V64.7975V64.8494C56.728 64.9273 56.728 65.0052 56.6761 65.0571V65.109H56.6501C56.702 65.1869 56.728 65.2648 56.728 65.3427C56.728 65.3946 56.728 65.4465 56.702 65.4984V65.5504H56.6761C56.728 65.6542 56.728 65.7321 56.728 65.81L56.6761 66.0176V66.0696C56.6761 66.0696 56.6501 66.2253 56.6242 66.2772C56.5982 66.3032 56.5203 66.3292 56.4165 66.3551H56.2607H56.2088C56.1569 66.3551 56.079 66.3551 55.9752 66.3551H55.7934C55.6896 66.3551 55.6377 66.3551 55.6117 66.3551H55.5338C55.5338 66.3551 55.3781 66.2773 55.3521 66.2253C55.3261 66.1994 55.3002 66.1474 55.3002 66.1215V65.9398L55.2742 65.8878C55.2742 65.784 55.2483 65.7061 55.2483 65.6542V65.4205V65.2648V65.1609V64.9792C55.2483 64.9273 55.2483 64.8494 55.2483 64.7715C55.2483 64.7196 55.2483 64.6677 55.2742 64.6158L55.3261 64.5639V64.4081V64.3302C55.3261 64.2523 55.3261 64.1744 55.3261 64.1225V64.0446V63.8629V63.811C55.3261 63.811 55.3261 63.6552 55.3781 63.6033V63.5254L55.404 63.4735C55.3781 63.3956 55.3781 63.3177 55.404 63.2658L55.4559 63.1879L55.404 63.0062C55.404 63.0062 55.404 62.9024 55.404 62.8245L55.4819 62.9283ZM56.8059 61.5265V61.6303L56.8578 61.7861L56.9617 61.864H57.1174L57.1953 61.838C57.2732 61.838 57.2991 61.838 57.3251 61.838H57.403H57.6107C57.6886 61.812 57.7405 61.7861 57.7924 61.7861H57.8443L58.0001 61.838H58.1299V61.9418V61.9678C58.1299 61.9678 58.1818 61.9418 58.2337 61.864C58.2856 61.7861 58.3376 61.7861 58.3895 61.7861L58.5972 61.838C58.5972 61.838 58.727 61.7601 58.7789 61.7601H58.8308C58.8308 61.7601 58.9087 61.7601 58.9347 61.7861H59.0125C59.0125 61.7861 59.1423 61.7601 59.2202 61.7861L59.3241 61.838C59.3241 61.838 59.4798 61.838 59.5317 61.838H59.6096L59.8433 61.812H60.1808L60.3106 61.7601H60.3365C60.3365 61.7601 60.4404 61.6563 60.5182 61.6303H60.6221L60.8817 61.5005C60.8817 61.5005 60.9855 61.3447 61.0375 61.3188L61.1153 61.2669C61.1153 61.2669 61.1673 61.163 61.2192 61.1111L61.2711 61.0592L61.349 60.9034L61.4528 60.7477L61.5307 60.6178L61.5826 60.514L61.6346 60.3582L61.6865 60.1765H61.8682C61.8682 60.1765 61.8682 60.1765 61.8682 60.1506C61.8682 60.1506 61.8163 60.0986 61.7644 60.0467C61.6865 59.9948 61.6605 59.9429 61.6865 59.9169V59.7871L61.7124 59.6313L61.6605 59.4237C61.6605 59.4237 61.6086 59.2939 61.6086 59.2679V59.19L61.5826 59.1641C61.5307 59.0862 61.5048 59.0343 61.5048 58.9823V58.9045L61.4528 58.8525C61.3749 58.7747 61.349 58.7227 61.323 58.6708V58.5929L61.0115 58.2554L60.9336 58.1516L60.8298 58.0737L60.7259 58.0218L60.3365 57.7882C60.3365 57.7882 60.1548 57.7882 60.1029 57.7622H60.025L59.9731 57.7362C59.8692 57.7362 59.8173 57.7362 59.7654 57.6843L59.7135 57.6324H59.4279H59.35C59.3241 57.6324 59.2721 57.6324 59.2462 57.6324C59.2202 57.6324 59.1943 57.6324 59.1683 57.6324L59.0385 57.5805H58.9606H58.7529C58.727 57.5805 58.701 57.5805 58.6751 57.5805C58.6491 57.5805 58.6231 57.5805 58.5712 57.5805H58.4933L58.3116 57.6064H58.2856C58.2856 57.6064 58.1558 57.6583 58.1039 57.6583C58.052 57.6583 58.0001 57.6583 57.9482 57.6583H57.8443L57.6626 57.6324C57.6107 57.6583 57.5328 57.6843 57.4289 57.6843H57.377C57.377 57.6843 57.2213 57.6843 57.1693 57.6583H57.0915H57.0395C57.0136 57.6583 56.9357 57.7103 56.8578 57.7362H56.8059L56.7799 57.866L56.728 57.9699H56.5982C56.5982 57.9699 56.5982 57.9699 56.5982 57.9958C56.5982 58.0218 56.6242 58.0218 56.702 58.0737C56.754 58.1256 56.8059 58.1516 56.8059 58.1776V58.3593C56.8059 58.3593 56.8059 58.515 56.8059 58.541V58.5929V58.8006C56.8059 58.8785 56.8059 58.9564 56.8059 58.9823V59.0343L56.7799 59.19V59.3717C56.7799 59.3717 56.8319 59.5015 56.8319 59.5794V59.6833L56.8059 59.7611C56.8059 59.8131 56.8059 59.865 56.8059 59.891V59.9688V59.9948C56.8059 60.0208 56.8319 60.0727 56.8319 60.1506C56.8319 60.2025 56.8319 60.2284 56.8319 60.2804L56.7799 60.4361V60.5659L56.8059 60.5919C56.8059 60.6698 56.8059 60.7477 56.8059 60.7996V60.8775C56.8059 60.8775 56.8319 61.0332 56.8059 61.0851L56.754 61.189L56.8059 61.3188C56.8059 61.3188 56.8319 61.4745 56.8319 61.5265H56.8059Z" fill="#FFF1E3"/>
<path d="M74.3812 62.3832C74.3812 62.3832 74.3812 62.4611 74.3812 62.487V62.5649L74.3293 62.7207V62.8505V62.9283C74.3293 62.9803 74.3293 63.0322 74.3293 63.0841V63.2139L74.2773 63.2658L74.1735 63.4476C74.1735 63.4476 74.1475 63.5774 74.0956 63.6552L74.0437 63.7072C74.0437 63.7072 74.0437 63.8889 73.9918 63.9148L73.9398 63.9668L73.862 64.1485L73.7841 64.3302L73.7322 64.3821L73.6283 64.5119C73.6283 64.5119 73.5764 64.6417 73.5245 64.7196L73.4726 64.7715L73.2908 65.0052L73.2389 65.0571L73.1351 65.1609H73.0832V65.2129C73.0312 65.2648 72.9793 65.3167 72.9274 65.3427H72.8495L72.7976 65.4206L72.6678 65.5504C72.6678 65.5504 72.5899 65.6023 72.512 65.6542L72.3822 65.758L72.2524 65.8359H72.2265L72.0707 65.9657L71.9928 66.0176L71.8111 66.1215C71.8111 66.1215 71.7072 66.2253 71.6553 66.2513H71.5774L71.2659 66.4071C71.2659 66.4071 71.1102 66.459 71.0582 66.459H70.8246L70.7207 66.5109H70.6948C70.6948 66.5109 70.539 66.5888 70.4871 66.6147H70.4092H70.3054H70.1496H69.9419C69.89 66.6147 69.8381 66.6407 69.7342 66.6407H69.4746C69.4746 66.6407 69.2929 66.6667 69.215 66.6667H69.0852L68.7997 66.6147L68.5141 66.5628C68.5141 66.5628 68.4362 66.5888 68.3843 66.5888C68.3324 66.5888 68.3064 66.5888 68.3064 66.5888V66.3292L68.2545 66.5628C68.2545 66.5628 68.2285 66.6147 68.1766 66.6147C68.1507 66.6147 68.1247 66.6147 68.0728 66.6147C68.0208 66.6147 67.9949 66.6147 67.9949 66.5888H67.8651L67.6834 66.5109C67.6314 66.5109 67.5795 66.5109 67.5016 66.4849C67.4497 66.4849 67.3978 66.459 67.3459 66.433H67.268L67.0343 66.3032L66.8786 66.2253L66.8007 66.1734C66.8007 66.1734 66.6709 66.0955 66.6449 66.0696L66.593 66.0176L66.4892 65.9398C66.4892 65.9398 66.3594 65.8878 66.3075 65.8359C66.2555 65.81 66.2296 65.758 66.2036 65.7061L66.1517 65.6282L66.0219 65.5504H65.9959C65.9959 65.5504 65.8921 65.4725 65.8402 65.4206L65.7882 65.3686L65.6584 65.2129C65.6584 65.2129 65.5286 65.135 65.5027 65.109L65.295 64.9533C65.295 64.9533 65.1912 64.8754 65.1652 64.8235V64.7715H65.1133C65.0613 64.6937 65.0094 64.6417 64.9835 64.5898L64.9315 64.5119L64.8796 64.3821L64.8017 64.2523L64.6979 64.1225L64.5681 63.9668L64.4902 63.811V63.7331L64.4123 63.5514H64.3864C64.3864 63.5514 64.3085 63.3956 64.3085 63.3437V63.2658C64.3085 63.2658 64.2566 63.1879 64.2046 63.0841V62.9803L64.1268 62.8505L64.0748 62.5649C64.0748 62.5649 63.997 62.4091 63.997 62.3832V62.1236C63.997 62.1236 63.9191 61.9938 63.9191 61.9159V61.812C63.9191 61.812 63.8412 61.6563 63.8412 61.5524V61.4226L63.8931 61.2409V61.1111V61.0592C63.8931 61.0332 63.8931 60.9553 63.9191 60.8515V60.7477H63.945C63.945 60.6698 63.945 60.6179 63.945 60.5659V60.514L63.997 60.3842V60.3063C63.997 60.3063 63.997 60.1506 64.0229 60.1246L64.0748 60.0467L64.1268 59.9429V59.865L64.2046 59.6833L64.2566 59.6314V59.5794C64.2566 59.5794 64.2566 59.4237 64.3345 59.3717L64.3864 59.2939V59.1641H64.4123C64.4383 59.0862 64.4643 59.0343 64.5162 58.9823L64.5681 58.9045L64.6979 58.6708L64.8017 58.541L64.9056 58.4372C64.9056 58.4372 64.9315 58.3593 64.9835 58.3074L65.0354 58.2554L65.269 57.9958L65.3469 57.918V57.866C65.3469 57.866 65.4248 57.7882 65.4248 57.7622C65.4248 57.7622 65.4248 57.7362 65.4508 57.7103C65.4508 57.6843 65.5027 57.6584 65.5546 57.6324L65.6325 57.5805L65.7363 57.4766C65.7363 57.4766 65.7882 57.3209 65.8661 57.2689L65.9959 57.1911H66.0738C66.0738 57.1911 66.1777 57.0613 66.2296 57.0353L66.3334 56.9834C66.3334 56.9834 66.4373 56.8795 66.4892 56.8536L66.593 56.8017C66.593 56.8017 66.6969 56.7238 66.7747 56.6978L66.8786 56.6459C66.8786 56.6459 67.0084 56.594 67.0603 56.568L67.1642 56.5161C67.1642 56.5161 67.294 56.4382 67.3459 56.4122H67.4238L67.5276 56.3603H67.6314L67.8132 56.3084L67.943 56.2565L68.1247 56.2046C68.1247 56.2046 68.2545 56.1786 68.3064 56.1786H68.3843H68.4103C68.4622 56.1786 68.5401 56.1526 68.6179 56.1526H68.7218C68.7218 56.1526 68.8775 56.1267 68.9035 56.1267H68.9814L69.2929 56.1007H69.3189C69.3189 56.1007 69.5006 56.1007 69.5266 56.1007H69.6044H69.6823C69.7083 56.1007 69.7602 56.1007 69.7862 56.1267L69.864 56.1786C69.864 56.1786 69.916 56.1786 69.9679 56.1786C70.0198 56.1786 70.0458 56.1786 70.0717 56.1786L70.1496 56.3603V56.1786C70.1496 56.1786 70.1496 56.1267 70.2015 56.1267C70.2535 56.1267 70.3054 56.1267 70.3573 56.1786H70.4352L70.4871 56.2046C70.5909 56.2305 70.6429 56.2565 70.6688 56.2824H70.7207L70.7467 56.3084L70.9544 56.3603H71.0323L71.0842 56.4122C71.1621 56.4382 71.214 56.4642 71.2659 56.4901C71.3178 56.5421 71.3438 56.568 71.3698 56.568V56.6199H71.4217C71.4996 56.6459 71.5515 56.6978 71.5774 56.7238L71.6294 56.7757L71.7592 56.8795C71.7592 56.8795 71.889 56.9055 71.9409 56.9574L72.0447 57.0872L72.0967 57.1651H72.1226C72.1226 57.1651 72.2784 57.243 72.2784 57.2689V57.3209L72.4341 57.4507L72.6418 57.6324L72.7457 57.7103L72.8236 57.7622L72.9793 57.866C72.9793 57.866 73.0832 57.9699 73.1091 58.0218L73.187 58.1776H73.213C73.213 58.1776 73.2649 58.2295 73.3168 58.2554C73.3687 58.2814 73.3947 58.3074 73.3687 58.3333L73.2649 58.515L73.4206 58.4112C73.4206 58.4112 73.4206 58.4112 73.4726 58.4112C73.4985 58.4112 73.5245 58.4112 73.5245 58.4891C73.5245 58.541 73.5245 58.567 73.5504 58.5929L73.6024 58.6708L73.7322 58.9304L73.81 59.0343L73.8879 59.1121V59.1641C73.8879 59.1641 73.9918 59.2939 74.0177 59.3458V59.4237L74.1475 59.6054C74.1735 59.6573 74.1995 59.7092 74.1995 59.7352V59.7871L74.2254 59.9169C74.2254 59.9169 74.2773 60.0986 74.2773 60.1506V60.2544V60.4102C74.3033 60.488 74.3293 60.5659 74.3293 60.6438V60.7996V60.9553L74.3812 61.1111C74.3812 61.1111 74.4331 61.2409 74.4331 61.3447V61.5005V61.5784C74.4331 61.6044 74.4331 61.6303 74.4331 61.6563C74.4331 61.6822 74.4331 61.7342 74.4331 61.7601V61.838V62.1755V62.2534L74.3812 62.3832ZM65.8921 61.6044L65.8402 61.7082C65.8402 61.7082 65.8402 61.812 65.8402 61.8899V61.9938C65.8402 61.9938 65.8661 62.1495 65.8402 62.2014V62.2793L65.8142 62.4091C65.8142 62.4091 65.8661 62.513 65.8661 62.5389C65.8661 62.5649 65.8661 62.5909 65.8661 62.6168V62.6947L65.944 62.9024L65.9959 62.9803L66.0998 63.136L66.2815 63.3956L66.3334 63.4735L66.4892 63.6552L66.6449 63.811C66.6449 63.811 66.6969 63.837 66.7228 63.8629C66.7228 63.8629 66.7488 63.9148 66.7747 63.9408V64.0187L66.9305 64.1744C66.9824 64.2004 67.0343 64.2523 67.0863 64.3302L67.1642 64.4081L67.242 64.486L67.294 64.7456L67.3978 64.5639C67.3978 64.5639 67.4238 64.5379 67.4497 64.5379C67.4497 64.5379 67.5016 64.5379 67.5276 64.5898C67.5536 64.6158 67.5795 64.6417 67.6055 64.6417L67.7093 64.6937L67.8132 64.7715H67.8391C67.8391 64.7715 67.9689 64.7715 68.0209 64.8235L68.0728 64.8754L68.3583 65.0311L68.6179 65.135L68.7737 65.1869L68.9554 65.2388C68.9554 65.2388 69.1112 65.2388 69.1372 65.2388L69.215 65.2908H69.3968H69.6044H69.7862H69.864H69.9939L70.1756 65.2388C70.2275 65.2129 70.2794 65.1869 70.3573 65.1609H70.4352C70.4352 65.1609 70.5131 65.109 70.5909 65.0831H70.6688L70.8246 65.0052L70.9544 64.9533L71.24 64.7975C71.24 64.7975 71.3438 64.6937 71.3957 64.6677C71.4736 64.6417 71.5255 64.6158 71.5515 64.6158H71.6294L71.7592 64.486C71.7592 64.486 71.837 64.4341 71.9149 64.4081H72.0188C72.0188 64.4081 72.0967 64.2523 72.1486 64.2004L72.2265 64.1485L72.4341 63.9668L72.4861 63.8629L72.538 63.6552C72.538 63.6552 72.538 63.5254 72.5899 63.4735V63.4216L72.7197 63.2399L72.7976 62.9543C72.7976 62.9543 72.8495 62.7985 72.8755 62.7466L72.9274 62.6947H73.0832H73.1091C73.1091 62.6947 73.0832 62.6428 73.0312 62.5909C72.9793 62.5389 72.9534 62.487 72.9534 62.487L73.0053 62.4091V62.3053C73.0053 62.3053 73.0053 62.2274 73.0312 62.1495V62.0457L73.0572 61.8899V61.7861V61.7601V61.6303V61.5005V61.3188V61.2149C73.0312 61.1111 73.0312 61.0592 73.0312 61.0332V60.9553C73.0312 60.9553 72.9793 60.8255 72.9534 60.7477C72.9534 60.6698 72.9534 60.6179 72.9534 60.5919V60.54L72.9274 60.3583L72.8755 60.2804L72.7976 60.1246V60.0727C72.7976 60.0727 72.7457 59.9429 72.7197 59.891V59.839L72.6678 59.7612C72.6159 59.6833 72.5899 59.6054 72.5639 59.5794V59.5016C72.5639 59.5016 72.4861 59.4237 72.4341 59.3458L72.3822 59.2679L72.2784 59.1381L72.1745 59.0083L72.0967 58.9045L71.9668 58.8006H71.9409C71.9409 58.8006 71.837 58.6968 71.8111 58.6449L71.7592 58.567L71.6813 58.4372C71.6813 58.4372 71.5255 58.3593 71.4996 58.3074L71.4217 58.2295L71.1361 58.0997L70.9804 57.9958C70.9804 57.9958 70.8246 57.9958 70.7986 57.9439L70.7467 57.892L70.6169 57.8401H70.539L70.3573 57.7882H70.2794L70.1756 57.7103H70.0977C70.0977 57.7103 69.9419 57.6584 69.89 57.6324L69.8121 57.5805C69.8121 57.5805 69.6823 57.6064 69.6304 57.5805H69.5266L69.4746 57.5545H69.0852H68.9295C68.8775 57.5545 68.8256 57.5545 68.7477 57.5545H68.6699H68.4881C68.4103 57.6064 68.3324 57.6324 68.2805 57.6324H68.2026L68.0468 57.7103L67.9689 57.7882L67.917 57.8401C67.917 57.8401 67.8132 57.918 67.7612 57.9439H67.6834L67.5536 58.0997H67.5276C67.5276 58.0997 67.3978 58.2035 67.3459 58.2295H67.268L67.0343 58.4112C67.0343 58.4112 67.0344 58.4891 66.9824 58.541C66.9565 58.5929 66.9045 58.6189 66.8526 58.6189H66.619L66.6969 58.7227V58.7747C66.6969 58.7747 66.6969 58.8266 66.6449 58.8525C66.593 58.8525 66.5671 58.8785 66.5671 58.8785H66.4892V58.9564C66.4632 59.0343 66.4373 59.0862 66.4113 59.1121V59.1641H66.3594C66.3334 59.2419 66.3075 59.2939 66.2555 59.3458L66.1776 59.3977C66.1776 59.3977 66.1777 59.5275 66.0998 59.6054L66.0478 59.6833V59.7352C66.0478 59.7352 66.0478 59.891 66.0478 59.9169V59.9948L65.97 60.0986L65.8661 60.3063V60.4102L65.8402 60.4621V60.6179L65.8142 60.6698V60.8515C65.8142 60.8515 65.8142 60.9813 65.8142 61.0592V61.163V61.2928C65.8142 61.3967 65.8142 61.4746 65.7882 61.5265L65.8921 61.6044ZM69.7862 54.0239C69.7862 54.0239 69.9679 54.0758 69.9939 54.1018C69.9939 54.1018 70.0458 54.1537 70.0717 54.1796C70.0977 54.2056 70.1237 54.2316 70.1496 54.2835L70.2275 54.4133C70.2275 54.4133 70.3573 54.4912 70.3833 54.5431V54.621L70.5909 54.8027H70.6429L70.7727 54.9844V55.0363L71.0063 55.2959H71.0582C71.0582 55.2959 71.188 55.4517 71.214 55.5296C71.214 55.5815 71.214 55.6075 71.214 55.6594C71.214 55.6853 71.214 55.7113 71.1621 55.7113H71.0323L70.9284 55.7373C70.8505 55.7373 70.7727 55.7373 70.7207 55.7373H70.6429H70.5909C70.5131 55.7632 70.4611 55.7892 70.3833 55.7892H70.3054L70.1237 55.7632C70.0458 55.7632 69.9679 55.7113 69.89 55.6334L69.7083 55.4517L69.4487 55.1402L69.241 54.9065L69.1631 54.8546L68.8775 55.1402L68.7477 55.2959C68.7477 55.2959 68.6699 55.3998 68.6179 55.4257H68.566V55.4777C68.5401 55.5555 68.5141 55.6334 68.4622 55.6594C68.4622 55.6594 68.3843 55.6854 68.2805 55.7373H68.2285C68.2285 55.7373 68.0728 55.7892 68.0209 55.7373H67.943C67.943 55.7373 67.8391 55.7632 67.7612 55.7373H67.6834H67.5276H67.4757C67.4757 55.7373 67.3459 55.7373 67.294 55.6853C67.294 55.6853 67.268 55.6334 67.268 55.6075C67.268 55.5815 67.268 55.5296 67.3199 55.4777L67.4238 55.3219H67.4757L67.5795 55.1921L67.7353 55.0363C67.7353 55.0363 67.7612 54.9844 67.8132 54.9844C67.8651 54.9844 67.891 54.9585 67.917 54.9325C67.917 54.9325 67.917 54.9065 67.917 54.8546C67.917 54.8027 67.917 54.7767 67.917 54.7508L67.9689 54.6989L68.0468 54.595L68.1766 54.4912V54.4392L68.3064 54.2835L68.3583 54.2316L68.4881 54.1018C68.4881 54.1018 68.6439 53.9979 68.7218 53.972C68.8256 53.946 68.8775 53.946 68.9035 53.972H68.9554H69.1112H69.3708H69.7083L69.7862 54.0239Z" fill="#FFF1E3"/>
<path d="M40.0354 46.054C40.0354 48.9097 36.7644 51.3759 31.9097 51.3759H27.782C26.4321 51.3759 25.4975 50.3894 25.4975 48.9097C25.4975 47.5857 26.2503 46.0021 26.2503 43.6916V41.0176C26.2503 38.7072 25.4975 37.1236 25.4975 35.7736C25.4975 34.4237 26.3542 33.4112 27.6262 33.3333H31.5722C35.7259 33.3333 38.5037 35.3842 38.5037 38.162C38.5037 39.6417 37.6989 40.8619 36.2971 41.6667C38.6335 42.4195 40.0354 44.1589 40.0354 46.028V46.054ZM31.728 40.8359C33.1299 40.8359 34.0385 39.5639 34.0385 37.8245C34.0385 36.3188 33.3635 35.4361 32.5587 35.4361C30.7675 35.4361 31.053 39.486 31.053 40.8359H31.728ZM31.079 43.7175C31.079 45.3011 31.0011 49.325 33.3376 49.325C34.6096 49.325 35.5961 48.1308 35.5961 46.4434C35.5961 44.4185 34.1423 42.8868 32.403 42.8868H31.079V43.7175Z" fill="#FFF1E3"/>
<path d="M46.889 51.6355C43.5401 51.6355 41.0219 49.0135 41.0219 45.0675C41.0219 41.1215 43.7218 38.2658 47.3043 38.2658C49.8485 38.2658 51.7955 39.5898 51.7955 41.7445C51.7955 44.055 49.4331 46.1059 45.9025 46.8068C46.3698 47.7674 47.1226 48.3126 48.213 48.3126C49.0697 48.3126 49.7965 47.9751 50.3417 47.3261C50.7571 46.8588 51.484 46.2876 52.0292 46.5732C52.4445 46.7549 52.6522 47.3261 52.107 48.4943C51.1465 50.4673 49.1475 51.6615 46.863 51.6615L46.889 51.6355ZM48.213 41.7705C48.213 40.8878 47.7716 40.3427 47.0967 40.3427C45.9803 40.3427 45.3833 41.7965 45.3833 43.9512C45.3833 44.6521 45.4352 45.2752 45.565 45.8203C47.2005 44.6521 48.213 43.1464 48.213 41.7705Z" fill="#FFF1E3"/>
<path d="M62.8547 49.4548C62.2836 50.7788 60.7778 51.6095 59.2202 51.6095C56.4165 51.6095 54.6512 48.9616 54.6512 44.9637V40.5504H53.0416C52.6262 40.5504 52.3147 40.2648 52.3147 39.8235V39.2523C52.3147 38.811 52.6262 38.5254 53.0156 38.4995C56.7799 38.3697 56.3646 34.6314 57.9482 34.6314C58.9087 34.6314 58.8568 36.0073 58.7789 38.4995H60.648C61.0894 38.4995 61.4009 38.811 61.4009 39.2523V39.8235C61.4009 40.2648 61.0894 40.5504 60.648 40.5504H58.7529V43.9512C58.7529 46.5472 58.701 48.8058 60.3106 48.8058C61.5047 48.8058 61.9461 47.5337 62.6211 47.8193C63.0883 48.053 63.1922 48.702 62.8547 49.4548Z" fill="#FFF1E3"/>
<path d="M69.1372 51.6355C65.7882 51.6355 63.2701 49.0135 63.2701 45.0675C63.2701 41.1215 65.97 38.2658 69.5525 38.2658C72.0967 38.2658 74.0437 39.5898 74.0437 41.7445C74.0437 44.055 71.6813 46.1059 68.1507 46.8068C68.6179 47.7674 69.3708 48.3126 70.4611 48.3126C71.3178 48.3126 72.0447 47.9751 72.5899 47.3261C73.0053 46.8588 73.7322 46.2876 74.2773 46.5732C74.6927 46.7549 74.9004 47.3261 74.3552 48.4943C73.3947 50.4673 71.3957 51.6615 69.1112 51.6615L69.1372 51.6355ZM70.4611 41.7705C70.4611 40.8878 70.0198 40.3427 69.3448 40.3427C68.2285 40.3427 67.6314 41.7965 67.6314 43.9512C67.6314 44.6521 67.6834 45.2752 67.8132 45.8203C69.4487 44.6521 70.4611 43.1464 70.4611 41.7705Z" fill="#FFF1E3"/>
</g>
<defs>
<clipPath id="clip0_1_30">
<rect width="100" height="100" fill="white"/>
</clipPath>
</defs>
</svg>
