<svg width="32" height="32" viewBox="0 0 32 32" fill="none" xmlns="http://www.w3.org/2000/svg">
<g clip-path="url(#clip0_28_460)">
<path d="M16.1583 0C7.56273 0 0.58303 6.9797 0.58303 15.5919C0.58303 18.5403 1.39927 21.2889 2.8152 23.6377L0 32L8.62884 29.2348C10.861 30.4675 13.4263 31.1671 16.1583 31.1671C24.7704 31.1671 31.7501 24.1874 31.7501 15.5752C31.7501 6.96304 24.7704 0 16.1583 0ZM24.1208 20.8391C24.0708 21.039 24.0042 21.2723 23.9042 21.4888C23.721 21.9386 23.2212 22.3883 22.6549 22.7048C22.1052 23.038 21.5055 23.2546 21.139 23.2712C20.7725 23.2879 20.5893 23.4378 19.9896 23.3545C19.8397 23.3378 19.6731 23.3045 19.4565 23.2546C18.8235 23.088 17.8907 22.7548 16.3915 22.1052C15.8917 21.8886 15.4253 21.6221 14.9755 21.3389C12.2936 19.6398 10.5445 16.9912 9.99479 16.1083C9.9115 15.9584 9.84487 15.8584 9.82822 15.8251C9.77824 15.7585 9.66164 15.5919 9.51171 15.3254C9.36179 15.0588 9.17855 14.7423 8.99532 14.3592C8.81208 13.9761 8.6455 13.5429 8.52889 13.0765C8.41229 12.6101 8.34565 12.127 8.36231 11.6439C8.37897 11.1609 8.46226 10.7277 8.57887 10.3613C8.69547 9.99479 8.84539 9.67829 9.01197 9.42842C9.32847 8.91203 9.69495 8.57887 9.87819 8.37897C10.0614 8.17907 10.278 8.06247 10.4612 7.99584C10.6445 7.9292 10.8277 7.91255 10.961 7.91255C11.2275 7.91255 11.494 7.96252 11.7272 7.97918C11.7772 7.97918 11.8438 7.97918 11.9105 7.97918H11.9438C12.1437 7.99584 12.3769 8.09578 12.5768 8.66216C12.6101 8.7621 12.6601 8.87871 12.71 9.01197C12.81 9.2785 12.9266 9.595 13.0432 9.9115C13.3431 10.7111 13.6429 11.5273 13.6929 11.6606C13.7428 11.7605 13.7762 11.8771 13.7928 11.9938C13.7928 12.1104 13.7928 12.227 13.7095 12.3602C13.5596 12.6268 13.493 12.7767 13.2931 13.0099C13.0932 13.2264 12.86 13.5096 12.6767 13.6929C12.5268 13.8428 12.3602 13.9927 12.3769 14.2259C12.3769 14.3092 12.4102 14.3925 12.4602 14.4925C12.5102 14.5924 12.6101 14.759 12.7267 14.9589C13.0765 15.5586 13.7262 16.5081 14.5757 17.341C15.0755 17.8074 15.5252 18.1572 15.9417 18.4404C16.3248 18.6903 16.6413 18.8902 16.9245 19.0401C17.2743 19.2233 17.5575 19.3566 17.7074 19.4399C17.9073 19.5398 18.0573 19.5898 18.1905 19.5898C18.3238 19.5898 18.4404 19.5065 18.5737 19.3732C18.6903 19.24 18.9568 18.9568 19.2233 18.6736C19.4898 18.3738 19.7564 18.0573 19.8896 17.874C20.1728 17.4909 20.4394 17.5575 20.7892 17.7074C20.7892 17.7074 20.8058 17.7074 20.8225 17.7074C21.0057 17.7741 21.4388 18.0073 21.9219 18.2572C22.0552 18.3238 22.1884 18.3904 22.3217 18.4737C22.4716 18.557 22.6216 18.6403 22.7548 18.7069C23.0713 18.8735 23.3545 19.0234 23.4711 19.0901C23.8542 19.3066 24.1208 19.4066 24.2207 19.5898C24.2374 19.6398 24.254 19.7064 24.2707 19.823C24.2707 20.0562 24.2374 20.406 24.1374 20.8058L24.1208 20.8391Z" fill="#E65424"/>
</g>
<defs>
<clipPath id="clip0_28_460">
<rect width="31.7501" height="32" fill="white"/>
</clipPath>
</defs>
</svg>
